<?xml version="1.0" encoding="UTF-8" standalone="no"?>
<svg
   xmlns:dc="http://purl.org/dc/elements/1.1/"
   xmlns:cc="http://creativecommons.org/ns#"
   xmlns:rdf="http://www.w3.org/1999/02/22-rdf-syntax-ns#"
   xmlns:svg="http://www.w3.org/2000/svg"
   xmlns="http://www.w3.org/2000/svg"
   viewBox="0 0 400 400"
   height="400"
   width="400"
   xml:space="preserve"
   id="svg2"
   version="1.1"><metadata
     id="metadata8"><rdf:RDF><cc:Work
         rdf:about=""><dc:format>image/svg+xml</dc:format><dc:type
           rdf:resource="http://purl.org/dc/dcmitype/StillImage" /></cc:Work></rdf:RDF></metadata><defs
     id="defs6"><linearGradient
       id="linearGradient46"
       spreadMethod="pad"
       gradientTransform="matrix(49.71096,0,0,-49.71096,125.14452,142.07213)"
       gradientUnits="userSpaceOnUse"
       y2="0"
       x2="1"
       y1="0"
       x1="0"><stop
         id="stop24"
         offset="0"
         style="stop-opacity:1;stop-color:#996839" /><stop
         id="stop26"
         offset="0.005618"
         style="stop-opacity:1;stop-color:#996839" /><stop
         id="stop28"
         offset="0.0791939"
         style="stop-opacity:1;stop-color:#a9733b" /><stop
         id="stop30"
         offset="0.23989"
         style="stop-opacity:1;stop-color:#edcb8c" /><stop
         id="stop32"
         offset="0.333372"
         style="stop-opacity:1;stop-color:#f1ce75" /><stop
         id="stop34"
         offset="0.33719277"
         style="stop-opacity:1;stop-color:#f1ce75" /><stop
         id="stop36"
         offset="0.464467"
         style="stop-opacity:1;stop-color:#fbaf31" /><stop
         id="stop38"
         offset="0.787543"
         style="stop-opacity:1;stop-color:#e0a93e" /><stop
         id="stop40"
         offset="0.894742"
         style="stop-opacity:1;stop-color:#f3dbaf" /><stop
         id="stop42"
         offset="0.89780975"
         style="stop-opacity:1;stop-color:#f3dbaf" /><stop
         id="stop44"
         offset="1"
         style="stop-opacity:1;stop-color:#f3dbaf" /></linearGradient><clipPath
       id="clipPath56"
       clipPathUnits="userSpaceOnUse"><path
         id="path54"
         d="M 0,300 H 300 V 0 H 0 Z" /></clipPath><linearGradient
       id="linearGradient96"
       spreadMethod="pad"
       gradientTransform="matrix(34.078205,0,0,-34.078205,132.96089,181.09276)"
       gradientUnits="userSpaceOnUse"
       y2="0"
       x2="1"
       y1="0"
       x1="0"><stop
         id="stop74"
         offset="0"
         style="stop-opacity:1;stop-color:#996839" /><stop
         id="stop76"
         offset="0.005618"
         style="stop-opacity:1;stop-color:#996839" /><stop
         id="stop78"
         offset="0.0791939"
         style="stop-opacity:1;stop-color:#a9733b" /><stop
         id="stop80"
         offset="0.23989"
         style="stop-opacity:1;stop-color:#edcb8c" /><stop
         id="stop82"
         offset="0.333372"
         style="stop-opacity:1;stop-color:#f1ce75" /><stop
         id="stop84"
         offset="0.33719277"
         style="stop-opacity:1;stop-color:#f1ce75" /><stop
         id="stop86"
         offset="0.464467"
         style="stop-opacity:1;stop-color:#fbaf31" /><stop
         id="stop88"
         offset="0.787543"
         style="stop-opacity:1;stop-color:#e0a93e" /><stop
         id="stop90"
         offset="0.894742"
         style="stop-opacity:1;stop-color:#f3dbaf" /><stop
         id="stop92"
         offset="0.89780975"
         style="stop-opacity:1;stop-color:#f3dbaf" /><stop
         id="stop94"
         offset="1"
         style="stop-opacity:1;stop-color:#f3dbaf" /></linearGradient><linearGradient
       id="linearGradient134"
       spreadMethod="pad"
       gradientTransform="matrix(30.231953,0,0,-30.231953,134.88402,175.37094)"
       gradientUnits="userSpaceOnUse"
       y2="0"
       x2="1"
       y1="0"
       x1="0"><stop
         id="stop112"
         offset="0"
         style="stop-opacity:1;stop-color:#996839" /><stop
         id="stop114"
         offset="0.005618"
         style="stop-opacity:1;stop-color:#996839" /><stop
         id="stop116"
         offset="0.0791939"
         style="stop-opacity:1;stop-color:#a9733b" /><stop
         id="stop118"
         offset="0.23989"
         style="stop-opacity:1;stop-color:#edcb8c" /><stop
         id="stop120"
         offset="0.333372"
         style="stop-opacity:1;stop-color:#f1ce75" /><stop
         id="stop122"
         offset="0.33719277"
         style="stop-opacity:1;stop-color:#f1ce75" /><stop
         id="stop124"
         offset="0.464467"
         style="stop-opacity:1;stop-color:#fbaf31" /><stop
         id="stop126"
         offset="0.787543"
         style="stop-opacity:1;stop-color:#e0a93e" /><stop
         id="stop128"
         offset="0.894742"
         style="stop-opacity:1;stop-color:#f3dbaf" /><stop
         id="stop130"
         offset="0.89780975"
         style="stop-opacity:1;stop-color:#f3dbaf" /><stop
         id="stop132"
         offset="1"
         style="stop-opacity:1;stop-color:#f3dbaf" /></linearGradient><linearGradient
       id="linearGradient172"
       spreadMethod="pad"
       gradientTransform="matrix(30.231953,0,0,-30.231953,134.88402,175.61273)"
       gradientUnits="userSpaceOnUse"
       y2="0"
       x2="1"
       y1="0"
       x1="0"><stop
         id="stop150"
         offset="0"
         style="stop-opacity:1;stop-color:#996839" /><stop
         id="stop152"
         offset="0.005618"
         style="stop-opacity:1;stop-color:#996839" /><stop
         id="stop154"
         offset="0.0791939"
         style="stop-opacity:1;stop-color:#a9733b" /><stop
         id="stop156"
         offset="0.23989"
         style="stop-opacity:1;stop-color:#edcb8c" /><stop
         id="stop158"
         offset="0.333372"
         style="stop-opacity:1;stop-color:#f1ce75" /><stop
         id="stop160"
         offset="0.33719277"
         style="stop-opacity:1;stop-color:#f1ce75" /><stop
         id="stop162"
         offset="0.464467"
         style="stop-opacity:1;stop-color:#fbaf31" /><stop
         id="stop164"
         offset="0.787543"
         style="stop-opacity:1;stop-color:#e0a93e" /><stop
         id="stop166"
         offset="0.894742"
         style="stop-opacity:1;stop-color:#f3dbaf" /><stop
         id="stop168"
         offset="0.89780975"
         style="stop-opacity:1;stop-color:#f3dbaf" /><stop
         id="stop170"
         offset="1"
         style="stop-opacity:1;stop-color:#f3dbaf" /></linearGradient><clipPath
       id="clipPath182"
       clipPathUnits="userSpaceOnUse"><path
         id="path180"
         d="M 0,300 H 300 V 0 H 0 Z" /></clipPath><clipPath
       id="clipPath190"
       clipPathUnits="userSpaceOnUse"><path
         id="path188"
         d="m 134.846,179.437 h 30.308 v -3.945 h -30.308 z" /></clipPath><linearGradient
       id="linearGradient218"
       spreadMethod="pad"
       gradientTransform="matrix(30.308149,0,0,-30.308149,134.84604,177.46434)"
       gradientUnits="userSpaceOnUse"
       y2="0"
       x2="1"
       y1="0"
       x1="0"><stop
         id="stop196"
         offset="0"
         style="stop-opacity:1;stop-color:#996839" /><stop
         id="stop198"
         offset="0.005618"
         style="stop-opacity:1;stop-color:#996839" /><stop
         id="stop200"
         offset="0.0791939"
         style="stop-opacity:1;stop-color:#a9733b" /><stop
         id="stop202"
         offset="0.23989"
         style="stop-opacity:1;stop-color:#edcb8c" /><stop
         id="stop204"
         offset="0.333372"
         style="stop-opacity:1;stop-color:#f1ce75" /><stop
         id="stop206"
         offset="0.33719277"
         style="stop-opacity:1;stop-color:#f1ce75" /><stop
         id="stop208"
         offset="0.464467"
         style="stop-opacity:1;stop-color:#fbaf31" /><stop
         id="stop210"
         offset="0.787543"
         style="stop-opacity:1;stop-color:#e0a93e" /><stop
         id="stop212"
         offset="0.894742"
         style="stop-opacity:1;stop-color:#f3dbaf" /><stop
         id="stop214"
         offset="0.89780975"
         style="stop-opacity:1;stop-color:#f3dbaf" /><stop
         id="stop216"
         offset="1"
         style="stop-opacity:1;stop-color:#f3dbaf" /></linearGradient></defs><g
     transform="matrix(1.3333333,0,0,-1.3333333,0,400)"
     id="g10"><g
       id="g12"><g
         id="g14"><g
           id="g20"><g
             id="g22"><path
               id="path48"
               style="fill:url(#linearGradient46);stroke:none"
               d="m 125.186,166.451 c -0.01,-0.814 -0.015,-1.464 -0.013,-1.729 v 0 c 0.03,-0.281 0.039,-0.733 0.039,-2.176 v 0 c 0,-0.274 -0.01,-0.616 -0.023,-1.049 v 0 c -0.093,-3.34 -0.342,-12.213 2.988,-22.19 v 0 c 3.871,-11.597 11.207,-20.653 21.823,-26.95 v 0 c 10.617,6.297 17.952,15.353 21.823,26.95 v 0 c 3.33,9.977 3.081,18.85 2.988,22.19 v 0 c -0.013,0.433 -0.022,0.775 -0.022,1.049 v 0 c 0,1.444 0.008,1.896 0.039,2.176 v 0 c 0.001,0.27 -0.005,0.933 -0.014,1.763 v 0 c -8.817,3.611 -16.667,5.302 -24.531,5.302 v 0 c -7.894,0 -15.924,-1.701 -25.097,-5.336" /></g></g></g></g><g
       id="g50"><g
         clip-path="url(#clipPath56)"
         id="g52"><g
           transform="translate(150.238,167.0546)"
           id="g58"><path
             id="path60"
             style="fill:#373535;fill-opacity:1;fill-rule:nonzero;stroke:none"
             d="m 0,0 c 6.611,0 13.211,-1.422 20.624,-4.458 0.008,-0.698 0.012,-1.256 0.011,-1.482 -0.025,-0.236 -0.032,-0.615 -0.032,-1.829 0,-0.231 0.008,-0.518 0.018,-0.882 0.079,-2.808 0.288,-10.268 -2.512,-18.656 -3.254,-9.75 -9.421,-17.363 -18.347,-22.658 -8.926,5.295 -15.093,12.908 -18.347,22.658 -2.8,8.388 -2.591,15.848 -2.512,18.656 0.01,0.364 0.018,0.651 0.018,0.882 0,1.213 -0.007,1.593 -0.032,1.829 -10e-4,0.223 0.003,0.769 0.01,1.453 C -13.388,-1.431 -6.637,0 0,0" /></g></g></g><g
       id="g62"><g
         id="g64"><g
           id="g70"><g
             id="g72"><path
               id="path98"
               style="fill:url(#linearGradient96);stroke:none"
               d="m 143.684,179.655 c -1.156,0.484 -4.094,5.498 -4.094,5.498 v 0 l -2.624,-6.665 c -0.855,0.61 -3.268,3.309 -3.869,3.986 v 0 c 1.211,-1.571 1.959,-7.932 1.959,-7.932 v 0 l 5.278,1.95 9.666,1.366 9.665,-1.366 5.279,-1.95 c 0,0 0.792,6.327 2.065,7.642 v 0 c -0.319,-0.318 -3.052,-3.038 -3.974,-3.696 v 0 l -2.625,6.25 c 0,0 -2.938,-4.599 -4.094,-5.083 v 0 c 0,0 -4.624,6.673 -6.316,7.988 v 0 c -1.692,-1.315 -6.316,-7.988 -6.316,-7.988 m -10.587,2.819 c -0.045,0.059 -0.09,0.11 -0.136,0.155 v 0 c 0,0 0.049,-0.056 0.136,-0.155 m 33.912,-0.29 c 0.02,0.02 0.03,0.03 0.03,0.03 v 0 c -0.01,-0.01 -0.02,-0.02 -0.03,-0.03" /></g></g></g></g><g
       id="g100"><g
         id="g102"><g
           id="g108"><g
             id="g110"><path
               id="path136"
               style="fill:url(#linearGradient134);stroke:none"
               d="m 134.884,173.479 c 0,-0.23 0.059,-0.456 0.173,-0.676 v 0 c 1.103,1.968 7.373,3.476 14.942,3.476 v 0 c 7.57,0 13.841,-1.508 14.945,-3.476 v 0 c 0.113,0.22 0.172,0.446 0.172,0.676 v 0 c 0,2.463 -6.767,4.46 -15.117,4.46 v 0 c -8.347,0 -15.115,-1.997 -15.115,-4.46" /></g></g></g></g><g
       id="g138"><g
         id="g140"><g
           id="g146"><g
             id="g148"><path
               id="path174"
               style="fill:url(#linearGradient172);stroke:none"
               d="m 134.884,173.721 c 0,-0.231 0.059,-0.456 0.173,-0.676 v 0 c 1.103,1.968 7.373,3.476 14.942,3.476 v 0 c 7.57,0 13.841,-1.508 14.945,-3.476 v 0 c 0.113,0.22 0.172,0.445 0.172,0.676 v 0 c 0,2.463 -6.767,4.46 -15.117,4.46 v 0 c -8.347,0 -15.115,-1.997 -15.115,-4.46" /></g></g></g></g><g
       id="g176"><g
         clip-path="url(#clipPath182)"
         id="g178"><g
           id="g184"><g
             id="g186" /><g
             id="g232"><g
               style="opacity:0.39999402"
               id="g230"
               clip-path="url(#clipPath190)"><g
                 id="g228"><g
                   id="g226"><g
                     id="g224"><g
                       id="g222"><path
                         id="path220"
                         style="fill:url(#linearGradient218);stroke:none"
                         d="m 134.846,175.492 c 0,0 0.061,0.095 0.212,0.252 0.146,0.16 0.389,0.375 0.724,0.625 0.172,0.121 0.367,0.25 0.583,0.386 0.226,0.123 0.46,0.272 0.731,0.401 0.537,0.266 1.165,0.538 1.879,0.774 0.71,0.245 1.503,0.46 2.352,0.651 0.427,0.085 0.862,0.189 1.315,0.264 0.454,0.069 0.917,0.14 1.389,0.212 0.95,0.102 1.93,0.223 2.935,0.267 1.002,0.078 2.024,0.084 3.045,0.107 l 0.385,0.006 0.382,-0.008 c 0.254,-0.005 0.508,-0.01 0.762,-0.015 0.253,-0.005 0.507,-0.01 0.759,-0.015 l 0.378,-0.008 0.378,-0.022 c 0.502,-0.03 1,-0.059 1.492,-0.088 0.491,-0.034 0.973,-0.095 1.449,-0.14 0.237,-0.027 0.475,-0.042 0.706,-0.078 0.232,-0.036 0.461,-0.07 0.688,-0.105 0.227,-0.035 0.452,-0.069 0.673,-0.103 0.222,-0.035 0.436,-0.087 0.65,-0.129 0.426,-0.092 0.845,-0.164 1.237,-0.279 0.392,-0.11 0.78,-0.193 1.133,-0.323 0.355,-0.122 0.704,-0.222 1.014,-0.362 0.157,-0.065 0.309,-0.128 0.458,-0.19 0.15,-0.059 0.283,-0.137 0.419,-0.202 0.133,-0.067 0.263,-0.133 0.388,-0.196 0.118,-0.071 0.232,-0.14 0.342,-0.207 0.225,-0.126 0.405,-0.271 0.577,-0.392 0.166,-0.126 0.301,-0.251 0.419,-0.358 0.107,-0.115 0.207,-0.208 0.269,-0.294 0.069,-0.083 0.115,-0.15 0.143,-0.196 0.031,-0.046 0.042,-0.071 0.042,-0.071 0,0 -0.011,0.025 -0.044,0.069 -0.03,0.046 -0.079,0.111 -0.151,0.192 -0.065,0.084 -0.168,0.174 -0.279,0.285 -0.122,0.103 -0.259,0.224 -0.428,0.346 -0.174,0.116 -0.356,0.257 -0.584,0.378 -0.11,0.063 -0.225,0.129 -0.345,0.197 -0.126,0.061 -0.256,0.123 -0.39,0.187 -0.137,0.061 -0.27,0.136 -0.421,0.192 -0.149,0.058 -0.303,0.118 -0.46,0.179 -0.31,0.132 -0.658,0.229 -1.012,0.345 -0.352,0.124 -0.739,0.202 -1.131,0.306 -0.389,0.11 -0.808,0.176 -1.232,0.261 -0.213,0.039 -0.427,0.089 -0.648,0.12 -0.22,0.031 -0.444,0.063 -0.67,0.095 -0.226,0.032 -0.454,0.065 -0.685,0.098 -0.23,0.035 -0.466,0.049 -0.702,0.075 -0.474,0.042 -0.954,0.101 -1.442,0.133 -0.489,0.026 -0.984,0.054 -1.483,0.081 l -0.374,0.021 -0.378,0.006 c -0.253,0.004 -0.506,0.008 -0.76,0.012 -0.254,0.004 -0.508,0.008 -0.762,0.012 l -0.382,0.006 -0.379,-0.007 c -1.016,-0.018 -2.034,-0.02 -3.031,-0.094 -1.001,-0.039 -1.976,-0.156 -2.922,-0.253 -0.469,-0.069 -0.93,-0.137 -1.382,-0.202 -0.451,-0.069 -0.884,-0.167 -1.311,-0.246 -0.845,-0.179 -1.636,-0.383 -2.345,-0.617 -0.712,-0.228 -1.342,-0.484 -1.883,-0.737 -0.274,-0.122 -0.51,-0.266 -0.739,-0.383 -0.217,-0.131 -0.415,-0.255 -0.59,-0.371 -0.338,-0.243 -0.591,-0.448 -0.741,-0.605 -0.158,-0.151 -0.222,-0.245 -0.222,-0.245" /></g></g></g></g></g></g></g></g></g><text
       id="text236"
       style="font-variant:normal;font-weight:normal;font-stretch:normal;font-size:24.94109917px;font-family:'Baskerville Old Face';-inkscape-font-specification:BaskOldFace;writing-mode:lr-tb;fill:#fbaf31;fill-opacity:1;fill-rule:nonzero;stroke:none"
       transform="matrix(1,0,0,-1,136.375,138.207)"><tspan
         id="tspan234"
         y="0"
         x="0 14.790072">PP</tspan></text>
</g></svg>